G75*
%MOIN*%
%OFA0B0*%
%FSLAX24Y24*%
%IPPOS*%
%LPD*%
%AMOC8*
5,1,8,0,0,1.08239X$1,22.5*
%
%ADD10C,0.0060*%
%ADD11R,0.6000X0.0500*%
%ADD12R,0.5000X0.0500*%
%ADD13C,0.0080*%
%ADD14C,0.0050*%
%ADD15C,0.0008*%
D10*
X013550Y007900D02*
X013550Y009850D01*
X013552Y009873D01*
X013557Y009896D01*
X013566Y009918D01*
X013579Y009938D01*
X013594Y009956D01*
X013612Y009971D01*
X013632Y009984D01*
X013654Y009993D01*
X013677Y009998D01*
X013700Y010000D01*
X014700Y010000D01*
X015400Y010000D02*
X016400Y010000D01*
X016423Y009998D01*
X016446Y009993D01*
X016468Y009984D01*
X016488Y009971D01*
X016506Y009956D01*
X016521Y009938D01*
X016534Y009918D01*
X016543Y009896D01*
X016548Y009873D01*
X016550Y009850D01*
X016550Y007900D01*
X015800Y008500D02*
X015600Y008500D01*
X015400Y008400D02*
X015150Y008400D01*
X015150Y008150D01*
X014950Y008150D01*
X014950Y008400D01*
X014700Y008400D01*
X014700Y008600D01*
X014950Y008600D01*
X014950Y008850D01*
X015150Y008850D01*
X015150Y008600D01*
X015400Y008600D01*
X015400Y008400D01*
X015400Y008150D02*
X015600Y007950D01*
X014700Y008150D02*
X014500Y007950D01*
X014500Y008500D02*
X014300Y008500D01*
X014650Y008900D02*
X014550Y009000D01*
X015450Y008900D02*
X015550Y009000D01*
X016550Y007150D02*
X016548Y007127D01*
X016543Y007104D01*
X016534Y007082D01*
X016521Y007062D01*
X016506Y007044D01*
X016488Y007029D01*
X016468Y007016D01*
X016446Y007007D01*
X016423Y007002D01*
X016400Y007000D01*
X015700Y007000D02*
X014400Y007000D01*
X013700Y007000D02*
X013677Y007002D01*
X013654Y007007D01*
X013632Y007016D01*
X013612Y007029D01*
X013594Y007044D01*
X013579Y007062D01*
X013566Y007082D01*
X013557Y007104D01*
X013552Y007127D01*
X013550Y007150D01*
X014154Y011816D02*
X014154Y012457D01*
X014475Y012457D01*
X014581Y012350D01*
X014581Y012137D01*
X014475Y012030D01*
X014154Y012030D01*
X013937Y012030D02*
X013937Y012350D01*
X013830Y012457D01*
X013723Y012350D01*
X013723Y012030D01*
X013510Y012030D02*
X013510Y012457D01*
X013616Y012457D01*
X013723Y012350D01*
X013294Y012457D02*
X013080Y012457D01*
X013187Y012564D02*
X013187Y012137D01*
X013294Y012030D01*
X011622Y012137D02*
X011516Y012244D01*
X011302Y012244D01*
X011195Y012350D01*
X011302Y012457D01*
X011622Y012457D01*
X011622Y012137D02*
X011516Y012030D01*
X011195Y012030D01*
X010978Y012137D02*
X010978Y012350D01*
X010871Y012457D01*
X010658Y012457D01*
X010551Y012350D01*
X010551Y012137D01*
X010658Y012030D01*
X010871Y012030D01*
X010978Y012137D01*
X010333Y012457D02*
X010120Y012030D01*
X009906Y012457D01*
X009689Y012457D02*
X009583Y012457D01*
X009369Y012244D01*
X009369Y012457D02*
X009369Y012030D01*
X009152Y012244D02*
X008725Y012244D01*
X008725Y012350D02*
X008725Y012137D01*
X008831Y012030D01*
X009045Y012030D01*
X009152Y012244D02*
X009152Y012350D01*
X009045Y012457D01*
X008831Y012457D01*
X008725Y012350D01*
X008507Y012457D02*
X008187Y012457D01*
X008080Y012350D01*
X008187Y012244D01*
X008400Y012244D01*
X008507Y012137D01*
X008400Y012030D01*
X008080Y012030D01*
X017080Y012137D02*
X017187Y012030D01*
X017507Y012030D01*
X017507Y012671D01*
X017507Y012457D02*
X017187Y012457D01*
X017080Y012350D01*
X017080Y012137D01*
X017725Y012030D02*
X017938Y012030D01*
X017831Y012030D02*
X017831Y012457D01*
X017725Y012457D01*
X017831Y012671D02*
X017831Y012777D01*
X018261Y012457D02*
X018475Y012457D01*
X018581Y012350D01*
X018581Y012030D01*
X018261Y012030D01*
X018154Y012137D01*
X018261Y012244D01*
X018581Y012244D01*
X018799Y012030D02*
X019012Y012030D01*
X018906Y012030D02*
X018906Y012671D01*
X018799Y012671D01*
D11*
X009550Y013250D03*
D12*
X018050Y013250D03*
D13*
X001300Y001500D02*
X001050Y001750D01*
X001050Y002250D01*
X001300Y002500D01*
X001050Y002750D01*
X001050Y003250D01*
X001300Y003500D01*
X001050Y003750D01*
X001050Y004250D01*
X001300Y004500D01*
X001050Y004750D01*
X001050Y005250D01*
X001300Y005500D01*
X001050Y005750D01*
X001050Y006250D01*
X001300Y006500D01*
X001050Y006750D01*
X001050Y007250D01*
X001300Y007500D01*
X001050Y007750D01*
X001050Y008250D01*
X001300Y008500D01*
X001050Y008750D01*
X001050Y009250D01*
X001300Y009500D01*
X001050Y009750D01*
X001050Y010250D01*
X001300Y010500D01*
X001050Y010750D01*
X001050Y011250D01*
X001300Y011500D01*
X001050Y011750D01*
X001050Y012250D01*
X001300Y012500D01*
X001050Y012750D01*
X001050Y013250D01*
X001300Y013500D01*
X001050Y013750D01*
X001050Y014250D01*
X001300Y014500D01*
X001050Y014750D01*
X001050Y015250D01*
X001300Y015500D01*
X001050Y015750D01*
X001050Y016250D01*
X001300Y016500D01*
X001050Y016750D01*
X001050Y017250D01*
X001300Y017500D01*
X001800Y017500D01*
X002050Y017250D01*
X002050Y016750D01*
X001800Y016500D01*
X002050Y016250D01*
X002050Y015750D01*
X001800Y015500D01*
X002050Y015250D01*
X002050Y014750D01*
X001800Y014500D01*
X002050Y014250D01*
X002050Y013750D01*
X001800Y013500D01*
X002050Y013250D01*
X002050Y012750D01*
X001800Y012500D01*
X002050Y012250D01*
X002050Y011750D01*
X001800Y011500D01*
X002050Y011250D01*
X002050Y010750D01*
X001800Y010500D01*
X002050Y010250D01*
X002050Y009750D01*
X001800Y009500D01*
X002050Y009250D01*
X002050Y008750D01*
X001800Y008500D01*
X002050Y008250D01*
X002050Y007750D01*
X001800Y007500D01*
X002050Y007250D01*
X002050Y006750D01*
X001800Y006500D01*
X002050Y006250D01*
X002050Y005750D01*
X001800Y005500D01*
X002050Y005250D01*
X002050Y004750D01*
X001800Y004500D01*
X002050Y004250D01*
X002050Y003750D01*
X001800Y003500D01*
X002050Y003250D01*
X002050Y002750D01*
X001800Y002500D01*
X002050Y002250D01*
X002050Y001750D01*
X001800Y001500D01*
X001300Y001500D01*
X001800Y001500D01*
X006278Y001850D02*
X009822Y001850D01*
X009822Y003150D01*
X006278Y003150D01*
X006278Y001850D01*
X015278Y001850D02*
X018822Y001850D01*
X018822Y003150D01*
X015278Y003150D01*
X015278Y001850D01*
X015300Y013500D02*
X014800Y013500D01*
X014550Y013750D01*
X014300Y013500D01*
X013800Y013500D01*
X013550Y013750D01*
X013300Y013500D01*
X012800Y013500D01*
X012550Y013750D01*
X012300Y013500D01*
X011800Y013500D01*
X011550Y013750D01*
X011300Y013500D01*
X010800Y013500D01*
X010550Y013750D01*
X010300Y013500D01*
X009800Y013500D01*
X009550Y013750D01*
X009300Y013500D01*
X008800Y013500D01*
X008550Y013750D01*
X008300Y013500D01*
X007800Y013500D01*
X007550Y013750D01*
X007300Y013500D01*
X006800Y013500D01*
X006550Y013750D01*
X006550Y014250D01*
X006800Y014500D01*
X007300Y014500D01*
X007550Y014250D01*
X007800Y014500D01*
X008300Y014500D01*
X008550Y014250D01*
X008800Y014500D01*
X009300Y014500D01*
X009550Y014250D01*
X009800Y014500D01*
X010300Y014500D01*
X010550Y014250D01*
X010800Y014500D01*
X011300Y014500D01*
X011550Y014250D01*
X011800Y014500D01*
X012300Y014500D01*
X012550Y014250D01*
X012800Y014500D01*
X013300Y014500D01*
X013550Y014250D01*
X013800Y014500D01*
X014300Y014500D01*
X014550Y014250D01*
X014800Y014500D01*
X015300Y014500D01*
X015550Y014250D01*
X015800Y014500D01*
X016300Y014500D01*
X016550Y014250D01*
X016800Y014500D01*
X017300Y014500D01*
X017550Y014250D01*
X017800Y014500D01*
X018300Y014500D01*
X018550Y014250D01*
X018800Y014500D01*
X019300Y014500D01*
X019550Y014250D01*
X019800Y014500D01*
X020300Y014500D01*
X020550Y014250D01*
X020550Y013750D01*
X020300Y013500D01*
X019800Y013500D01*
X019550Y013750D01*
X019300Y013500D01*
X018800Y013500D01*
X018550Y013750D01*
X018300Y013500D01*
X017800Y013500D01*
X017550Y013750D01*
X017300Y013500D01*
X016800Y013500D01*
X016550Y013750D01*
X016300Y013500D01*
X015800Y013500D01*
X015550Y013750D01*
X015300Y013500D01*
X008595Y016600D02*
X008437Y016600D01*
X008375Y017150D02*
X006725Y017150D01*
X006663Y016600D02*
X006505Y016600D01*
X007437Y016600D02*
X007663Y016600D01*
X001800Y017500D02*
X001300Y017500D01*
D14*
X006770Y002645D02*
X006725Y002600D01*
X006770Y002645D02*
X006860Y002645D01*
X006905Y002600D01*
X006905Y002555D01*
X006725Y002375D01*
X006905Y002375D01*
X007020Y002375D02*
X007065Y002375D01*
X007065Y002420D01*
X007020Y002420D01*
X007020Y002375D01*
X007167Y002375D02*
X007347Y002555D01*
X007347Y002600D01*
X007302Y002645D01*
X007212Y002645D01*
X007167Y002600D01*
X007167Y002375D02*
X007347Y002375D01*
X007462Y002375D02*
X007462Y002645D01*
X007507Y002510D02*
X007642Y002375D01*
X007462Y002465D02*
X007642Y002645D01*
X015725Y002645D02*
X015725Y002510D01*
X015815Y002555D01*
X015860Y002555D01*
X015905Y002510D01*
X015905Y002420D01*
X015860Y002375D01*
X015770Y002375D01*
X015725Y002420D01*
X015725Y002645D02*
X015905Y002645D01*
X016020Y002510D02*
X016155Y002510D01*
X016200Y002465D01*
X016200Y002420D01*
X016155Y002375D01*
X016065Y002375D01*
X016020Y002420D01*
X016020Y002510D01*
X016110Y002600D01*
X016200Y002645D01*
X016314Y002600D02*
X016359Y002645D01*
X016449Y002645D01*
X016494Y002600D01*
X016314Y002420D01*
X016359Y002375D01*
X016449Y002375D01*
X016494Y002420D01*
X016494Y002600D01*
X016314Y002600D02*
X016314Y002420D01*
D15*
X007873Y015464D02*
X007852Y015533D01*
X007853Y015532D02*
X007911Y015552D01*
X007967Y015576D01*
X008022Y015603D01*
X008075Y015633D01*
X008127Y015666D01*
X008176Y015702D01*
X008223Y015741D01*
X008267Y015783D01*
X008309Y015828D01*
X008348Y015875D01*
X008385Y015924D01*
X008418Y015976D01*
X008448Y016029D01*
X008475Y016084D01*
X008498Y016141D01*
X008518Y016198D01*
X008535Y016257D01*
X008547Y016317D01*
X008557Y016378D01*
X008562Y016439D01*
X008564Y016500D01*
X008562Y016561D01*
X008557Y016622D01*
X008547Y016682D01*
X008535Y016742D01*
X008518Y016801D01*
X008498Y016859D01*
X008475Y016915D01*
X008448Y016971D01*
X008418Y017024D01*
X008385Y017075D01*
X008349Y017125D01*
X008405Y017169D01*
X008444Y017116D01*
X008480Y017061D01*
X008512Y017004D01*
X008541Y016945D01*
X008566Y016885D01*
X008587Y016823D01*
X008605Y016759D01*
X008618Y016695D01*
X008628Y016631D01*
X008634Y016565D01*
X008636Y016500D01*
X008634Y016434D01*
X008628Y016369D01*
X008618Y016304D01*
X008604Y016240D01*
X008587Y016177D01*
X008565Y016115D01*
X008540Y016054D01*
X008512Y015996D01*
X008480Y015938D01*
X008444Y015883D01*
X008405Y015831D01*
X008363Y015780D01*
X008318Y015732D01*
X008271Y015687D01*
X008220Y015646D01*
X008167Y015607D01*
X008112Y015571D01*
X008055Y015539D01*
X007996Y015510D01*
X007936Y015485D01*
X007874Y015463D01*
X007872Y015470D01*
X007933Y015491D01*
X007994Y015516D01*
X008052Y015545D01*
X008109Y015577D01*
X008164Y015612D01*
X008216Y015651D01*
X008266Y015693D01*
X008313Y015737D01*
X008358Y015785D01*
X008400Y015835D01*
X008438Y015887D01*
X008474Y015942D01*
X008506Y015999D01*
X008534Y016057D01*
X008559Y016118D01*
X008580Y016179D01*
X008598Y016242D01*
X008611Y016305D01*
X008621Y016370D01*
X008627Y016435D01*
X008629Y016500D01*
X008627Y016565D01*
X008621Y016630D01*
X008611Y016694D01*
X008598Y016758D01*
X008580Y016821D01*
X008559Y016882D01*
X008534Y016942D01*
X008506Y017001D01*
X008474Y017058D01*
X008438Y017112D01*
X008400Y017165D01*
X008394Y017160D01*
X008433Y017108D01*
X008468Y017054D01*
X008500Y016998D01*
X008528Y016939D01*
X008553Y016880D01*
X008574Y016818D01*
X008591Y016756D01*
X008605Y016693D01*
X008614Y016629D01*
X008620Y016564D01*
X008622Y016500D01*
X008620Y016435D01*
X008614Y016371D01*
X008604Y016307D01*
X008591Y016243D01*
X008573Y016181D01*
X008552Y016120D01*
X008528Y016060D01*
X008499Y016002D01*
X008468Y015946D01*
X008432Y015891D01*
X008394Y015839D01*
X008353Y015789D01*
X008308Y015742D01*
X008261Y015698D01*
X008212Y015657D01*
X008160Y015618D01*
X008105Y015583D01*
X008049Y015551D01*
X007991Y015523D01*
X007931Y015498D01*
X007870Y015477D01*
X007868Y015484D01*
X007929Y015505D01*
X007988Y015529D01*
X008046Y015557D01*
X008102Y015589D01*
X008156Y015624D01*
X008207Y015662D01*
X008257Y015703D01*
X008303Y015747D01*
X008347Y015794D01*
X008389Y015844D01*
X008427Y015895D01*
X008462Y015949D01*
X008493Y016005D01*
X008521Y016063D01*
X008546Y016122D01*
X008567Y016183D01*
X008584Y016245D01*
X008598Y016308D01*
X008607Y016372D01*
X008613Y016436D01*
X008615Y016500D01*
X008613Y016564D01*
X008607Y016628D01*
X008598Y016692D01*
X008584Y016754D01*
X008567Y016816D01*
X008546Y016877D01*
X008521Y016937D01*
X008493Y016994D01*
X008462Y017050D01*
X008427Y017104D01*
X008389Y017156D01*
X008383Y017152D01*
X008421Y017100D01*
X008456Y017047D01*
X008487Y016991D01*
X008515Y016934D01*
X008539Y016875D01*
X008560Y016814D01*
X008577Y016753D01*
X008591Y016690D01*
X008600Y016627D01*
X008606Y016564D01*
X008608Y016500D01*
X008606Y016436D01*
X008600Y016372D01*
X008591Y016309D01*
X008577Y016247D01*
X008560Y016185D01*
X008539Y016125D01*
X008515Y016066D01*
X008487Y016009D01*
X008456Y015953D01*
X008421Y015899D01*
X008383Y015848D01*
X008342Y015799D01*
X008299Y015752D01*
X008252Y015708D01*
X008203Y015668D01*
X008152Y015630D01*
X008098Y015595D01*
X008042Y015564D01*
X007985Y015536D01*
X007926Y015511D01*
X007866Y015490D01*
X007864Y015497D01*
X007924Y015518D01*
X007982Y015542D01*
X008039Y015570D01*
X008094Y015601D01*
X008148Y015635D01*
X008199Y015673D01*
X008247Y015714D01*
X008294Y015757D01*
X008337Y015803D01*
X008378Y015852D01*
X008415Y015903D01*
X008450Y015957D01*
X008481Y016012D01*
X008508Y016069D01*
X008533Y016127D01*
X008553Y016187D01*
X008570Y016248D01*
X008584Y016311D01*
X008593Y016373D01*
X008599Y016436D01*
X008601Y016500D01*
X008599Y016563D01*
X008593Y016626D01*
X008584Y016689D01*
X008571Y016751D01*
X008554Y016812D01*
X008533Y016872D01*
X008509Y016931D01*
X008481Y016988D01*
X008450Y017043D01*
X008415Y017096D01*
X008378Y017147D01*
X008372Y017143D01*
X008410Y017092D01*
X008444Y017039D01*
X008475Y016985D01*
X008502Y016928D01*
X008526Y016870D01*
X008547Y016810D01*
X008564Y016749D01*
X008577Y016688D01*
X008586Y016625D01*
X008592Y016563D01*
X008594Y016500D01*
X008592Y016437D01*
X008586Y016374D01*
X008577Y016312D01*
X008564Y016250D01*
X008547Y016189D01*
X008526Y016130D01*
X008502Y016072D01*
X008475Y016015D01*
X008444Y015960D01*
X008409Y015907D01*
X008372Y015856D01*
X008332Y015808D01*
X008289Y015762D01*
X008243Y015719D01*
X008194Y015679D01*
X008144Y015641D01*
X008091Y015607D01*
X008036Y015576D01*
X007979Y015548D01*
X007921Y015524D01*
X007862Y015504D01*
X007860Y015510D01*
X007919Y015531D01*
X007976Y015555D01*
X008033Y015582D01*
X008087Y015613D01*
X008140Y015647D01*
X008190Y015684D01*
X008238Y015724D01*
X008284Y015767D01*
X008327Y015813D01*
X008367Y015861D01*
X008404Y015911D01*
X008438Y015964D01*
X008468Y016018D01*
X008496Y016075D01*
X008520Y016132D01*
X008540Y016192D01*
X008557Y016252D01*
X008570Y016313D01*
X008579Y016375D01*
X008585Y016437D01*
X008587Y016500D01*
X008585Y016562D01*
X008579Y016625D01*
X008570Y016686D01*
X008557Y016748D01*
X008540Y016808D01*
X008520Y016867D01*
X008496Y016925D01*
X008469Y016981D01*
X008438Y017036D01*
X008404Y017088D01*
X008367Y017139D01*
X008361Y017134D01*
X008398Y017084D01*
X008432Y017032D01*
X008462Y016978D01*
X008490Y016922D01*
X008513Y016865D01*
X008534Y016806D01*
X008550Y016746D01*
X008563Y016685D01*
X008573Y016624D01*
X008578Y016562D01*
X008580Y016500D01*
X008578Y016438D01*
X008572Y016376D01*
X008563Y016314D01*
X008550Y016254D01*
X008533Y016194D01*
X008513Y016135D01*
X008489Y016077D01*
X008462Y016022D01*
X008432Y015967D01*
X008398Y015915D01*
X008361Y015865D01*
X008321Y015817D01*
X008279Y015772D01*
X008234Y015729D01*
X008186Y015690D01*
X008136Y015653D01*
X008084Y015619D01*
X008029Y015588D01*
X007974Y015561D01*
X007916Y015537D01*
X007857Y015517D01*
X007855Y015524D01*
X007914Y015544D01*
X007971Y015568D01*
X008026Y015595D01*
X008080Y015625D01*
X008132Y015659D01*
X008181Y015695D01*
X008229Y015735D01*
X008274Y015777D01*
X008316Y015822D01*
X008356Y015869D01*
X008392Y015919D01*
X008426Y015971D01*
X008456Y016025D01*
X008483Y016080D01*
X008507Y016137D01*
X008527Y016196D01*
X008543Y016255D01*
X008556Y016316D01*
X008566Y016377D01*
X008571Y016438D01*
X008573Y016500D01*
X008571Y016561D01*
X008566Y016623D01*
X008556Y016684D01*
X008543Y016744D01*
X008527Y016804D01*
X008507Y016862D01*
X008483Y016919D01*
X008456Y016975D01*
X008426Y017029D01*
X008392Y017080D01*
X008356Y017130D01*
X008350Y017126D01*
X008387Y017076D01*
X008420Y017025D01*
X008450Y016971D01*
X008477Y016916D01*
X008500Y016860D01*
X008520Y016802D01*
X008537Y016743D01*
X008549Y016683D01*
X008559Y016622D01*
X008564Y016561D01*
X008566Y016500D01*
X008564Y016438D01*
X008559Y016377D01*
X008549Y016317D01*
X008536Y016257D01*
X008520Y016198D01*
X008500Y016140D01*
X008477Y016083D01*
X008450Y016028D01*
X008420Y015975D01*
X008386Y015923D01*
X008350Y015874D01*
X008311Y015827D01*
X008269Y015782D01*
X008224Y015740D01*
X008177Y015701D01*
X008128Y015664D01*
X008076Y015631D01*
X008023Y015601D01*
X007968Y015574D01*
X007911Y015550D01*
X007853Y015530D01*
X006695Y017169D02*
X006752Y017124D01*
X006751Y017125D02*
X006715Y017075D01*
X006682Y017024D01*
X006652Y016971D01*
X006625Y016915D01*
X006602Y016859D01*
X006582Y016801D01*
X006565Y016742D01*
X006553Y016682D01*
X006543Y016622D01*
X006538Y016561D01*
X006536Y016500D01*
X006538Y016439D01*
X006543Y016378D01*
X006553Y016317D01*
X006565Y016257D01*
X006582Y016198D01*
X006602Y016141D01*
X006625Y016084D01*
X006652Y016029D01*
X006682Y015976D01*
X006715Y015924D01*
X006751Y015875D01*
X006791Y015828D01*
X006833Y015783D01*
X006877Y015741D01*
X006924Y015702D01*
X006973Y015666D01*
X007025Y015633D01*
X007078Y015603D01*
X007133Y015576D01*
X007189Y015552D01*
X007247Y015532D01*
X007226Y015464D01*
X007226Y015463D01*
X007164Y015485D01*
X007104Y015510D01*
X007045Y015539D01*
X006988Y015571D01*
X006933Y015607D01*
X006880Y015646D01*
X006829Y015688D01*
X006782Y015732D01*
X006737Y015780D01*
X006695Y015831D01*
X006656Y015883D01*
X006620Y015938D01*
X006588Y015996D01*
X006560Y016054D01*
X006535Y016115D01*
X006513Y016177D01*
X006496Y016240D01*
X006482Y016304D01*
X006472Y016369D01*
X006466Y016434D01*
X006464Y016500D01*
X006466Y016565D01*
X006472Y016631D01*
X006482Y016695D01*
X006495Y016760D01*
X006513Y016823D01*
X006534Y016885D01*
X006559Y016945D01*
X006588Y017004D01*
X006620Y017061D01*
X006656Y017116D01*
X006695Y017169D01*
X006700Y017165D01*
X006662Y017112D01*
X006626Y017058D01*
X006594Y017001D01*
X006566Y016942D01*
X006541Y016882D01*
X006520Y016821D01*
X006502Y016758D01*
X006489Y016694D01*
X006479Y016630D01*
X006473Y016565D01*
X006471Y016500D01*
X006473Y016435D01*
X006479Y016370D01*
X006489Y016305D01*
X006502Y016242D01*
X006520Y016179D01*
X006541Y016118D01*
X006566Y016057D01*
X006594Y015999D01*
X006626Y015942D01*
X006662Y015887D01*
X006700Y015835D01*
X006742Y015785D01*
X006787Y015737D01*
X006834Y015693D01*
X006884Y015651D01*
X006936Y015612D01*
X006991Y015577D01*
X007048Y015545D01*
X007106Y015516D01*
X007167Y015491D01*
X007228Y015470D01*
X007230Y015477D01*
X007169Y015498D01*
X007109Y015523D01*
X007051Y015551D01*
X006995Y015583D01*
X006940Y015618D01*
X006888Y015657D01*
X006839Y015698D01*
X006792Y015742D01*
X006747Y015789D01*
X006706Y015839D01*
X006668Y015891D01*
X006632Y015946D01*
X006601Y016002D01*
X006572Y016060D01*
X006548Y016120D01*
X006527Y016181D01*
X006509Y016243D01*
X006496Y016307D01*
X006486Y016371D01*
X006480Y016435D01*
X006478Y016500D01*
X006480Y016564D01*
X006486Y016629D01*
X006495Y016693D01*
X006509Y016756D01*
X006526Y016818D01*
X006547Y016880D01*
X006572Y016939D01*
X006600Y016998D01*
X006632Y017054D01*
X006667Y017108D01*
X006706Y017160D01*
X006711Y017156D01*
X006673Y017104D01*
X006638Y017050D01*
X006607Y016994D01*
X006579Y016937D01*
X006554Y016877D01*
X006533Y016816D01*
X006516Y016754D01*
X006502Y016692D01*
X006493Y016628D01*
X006487Y016564D01*
X006485Y016500D01*
X006487Y016436D01*
X006493Y016372D01*
X006502Y016308D01*
X006516Y016245D01*
X006533Y016183D01*
X006554Y016122D01*
X006579Y016063D01*
X006607Y016005D01*
X006638Y015949D01*
X006673Y015895D01*
X006711Y015844D01*
X006753Y015794D01*
X006797Y015747D01*
X006843Y015703D01*
X006893Y015662D01*
X006944Y015624D01*
X006998Y015589D01*
X007054Y015557D01*
X007112Y015529D01*
X007171Y015505D01*
X007232Y015484D01*
X007234Y015490D01*
X007174Y015511D01*
X007115Y015536D01*
X007058Y015564D01*
X007002Y015595D01*
X006948Y015630D01*
X006897Y015668D01*
X006848Y015708D01*
X006801Y015752D01*
X006758Y015799D01*
X006717Y015848D01*
X006679Y015899D01*
X006644Y015953D01*
X006613Y016009D01*
X006585Y016066D01*
X006561Y016125D01*
X006540Y016185D01*
X006523Y016247D01*
X006509Y016309D01*
X006500Y016372D01*
X006494Y016436D01*
X006492Y016500D01*
X006494Y016564D01*
X006500Y016627D01*
X006509Y016690D01*
X006523Y016753D01*
X006540Y016814D01*
X006561Y016875D01*
X006585Y016934D01*
X006613Y016991D01*
X006644Y017047D01*
X006679Y017100D01*
X006717Y017152D01*
X006722Y017147D01*
X006685Y017096D01*
X006650Y017043D01*
X006619Y016988D01*
X006591Y016931D01*
X006567Y016872D01*
X006546Y016812D01*
X006529Y016751D01*
X006516Y016689D01*
X006507Y016626D01*
X006501Y016563D01*
X006499Y016500D01*
X006501Y016436D01*
X006507Y016373D01*
X006516Y016311D01*
X006530Y016249D01*
X006547Y016187D01*
X006567Y016127D01*
X006592Y016069D01*
X006619Y016012D01*
X006650Y015957D01*
X006685Y015903D01*
X006722Y015852D01*
X006763Y015803D01*
X006806Y015757D01*
X006853Y015714D01*
X006901Y015673D01*
X006952Y015635D01*
X007006Y015601D01*
X007061Y015570D01*
X007118Y015542D01*
X007176Y015518D01*
X007236Y015497D01*
X007238Y015504D01*
X007179Y015524D01*
X007121Y015548D01*
X007064Y015576D01*
X007009Y015607D01*
X006956Y015641D01*
X006906Y015679D01*
X006857Y015719D01*
X006811Y015762D01*
X006768Y015808D01*
X006728Y015857D01*
X006691Y015907D01*
X006656Y015960D01*
X006625Y016015D01*
X006598Y016072D01*
X006574Y016130D01*
X006553Y016189D01*
X006536Y016250D01*
X006523Y016312D01*
X006514Y016374D01*
X006508Y016437D01*
X006506Y016500D01*
X006508Y016563D01*
X006514Y016625D01*
X006523Y016688D01*
X006536Y016749D01*
X006553Y016810D01*
X006574Y016870D01*
X006598Y016928D01*
X006625Y016985D01*
X006656Y017039D01*
X006690Y017092D01*
X006728Y017143D01*
X006733Y017139D01*
X006696Y017088D01*
X006662Y017036D01*
X006631Y016981D01*
X006604Y016925D01*
X006580Y016867D01*
X006560Y016808D01*
X006543Y016748D01*
X006530Y016687D01*
X006521Y016625D01*
X006515Y016562D01*
X006513Y016500D01*
X006515Y016437D01*
X006521Y016375D01*
X006530Y016313D01*
X006543Y016252D01*
X006560Y016192D01*
X006580Y016132D01*
X006604Y016075D01*
X006632Y016018D01*
X006662Y015964D01*
X006696Y015911D01*
X006733Y015861D01*
X006773Y015813D01*
X006816Y015767D01*
X006862Y015724D01*
X006910Y015684D01*
X006960Y015647D01*
X007013Y015613D01*
X007067Y015582D01*
X007124Y015555D01*
X007181Y015531D01*
X007240Y015510D01*
X007243Y015517D01*
X007184Y015537D01*
X007126Y015561D01*
X007071Y015588D01*
X007016Y015619D01*
X006964Y015653D01*
X006914Y015690D01*
X006866Y015729D01*
X006821Y015772D01*
X006779Y015817D01*
X006739Y015865D01*
X006702Y015915D01*
X006668Y015967D01*
X006638Y016022D01*
X006611Y016077D01*
X006587Y016135D01*
X006567Y016194D01*
X006550Y016254D01*
X006537Y016314D01*
X006528Y016376D01*
X006522Y016438D01*
X006520Y016500D01*
X006522Y016562D01*
X006527Y016624D01*
X006537Y016685D01*
X006550Y016746D01*
X006566Y016806D01*
X006587Y016865D01*
X006610Y016922D01*
X006638Y016978D01*
X006668Y017032D01*
X006702Y017084D01*
X006739Y017134D01*
X006744Y017130D01*
X006708Y017080D01*
X006674Y017029D01*
X006644Y016975D01*
X006617Y016919D01*
X006593Y016862D01*
X006573Y016804D01*
X006557Y016744D01*
X006544Y016684D01*
X006534Y016623D01*
X006529Y016561D01*
X006527Y016500D01*
X006529Y016438D01*
X006534Y016377D01*
X006544Y016316D01*
X006557Y016255D01*
X006573Y016196D01*
X006593Y016137D01*
X006617Y016080D01*
X006644Y016025D01*
X006674Y015971D01*
X006708Y015919D01*
X006744Y015869D01*
X006784Y015822D01*
X006826Y015777D01*
X006871Y015735D01*
X006919Y015695D01*
X006968Y015659D01*
X007020Y015625D01*
X007074Y015595D01*
X007129Y015568D01*
X007186Y015544D01*
X007245Y015524D01*
X007247Y015530D01*
X007189Y015550D01*
X007132Y015574D01*
X007077Y015601D01*
X007024Y015631D01*
X006972Y015664D01*
X006923Y015701D01*
X006876Y015740D01*
X006831Y015782D01*
X006789Y015827D01*
X006750Y015874D01*
X006714Y015923D01*
X006680Y015975D01*
X006650Y016028D01*
X006623Y016083D01*
X006600Y016140D01*
X006580Y016198D01*
X006564Y016257D01*
X006551Y016317D01*
X006541Y016377D01*
X006536Y016438D01*
X006534Y016500D01*
X006536Y016561D01*
X006541Y016622D01*
X006551Y016683D01*
X006563Y016743D01*
X006580Y016802D01*
X006600Y016860D01*
X006623Y016916D01*
X006650Y016971D01*
X006680Y017025D01*
X006713Y017076D01*
X006750Y017126D01*
M02*
