G75*
%MOIN*%
%OFA0B0*%
%FSLAX24Y24*%
%IPPOS*%
%LPD*%
%AMOC8*
5,1,8,0,0,1.08239X$1,22.5*
%
%ADD10C,0.0740*%
%ADD11C,0.0640*%
%ADD12C,0.0080*%
%ADD13C,0.0400*%
D10*
X001550Y002000D03*
X001550Y003000D03*
X001550Y004000D03*
X001550Y005000D03*
X001550Y006000D03*
X001550Y007000D03*
X001550Y008000D03*
X001550Y009000D03*
X001550Y010000D03*
X001550Y011000D03*
X001550Y012000D03*
X001550Y013000D03*
X001550Y014000D03*
X001550Y015000D03*
X001550Y016000D03*
X001550Y017000D03*
X003550Y017000D03*
X003550Y016000D03*
X003550Y015000D03*
X003550Y014000D03*
X003550Y013000D03*
X003550Y012000D03*
X003550Y011000D03*
X003550Y010000D03*
X003550Y008500D03*
X003550Y007500D03*
X003550Y006500D03*
X003550Y005500D03*
X003550Y004500D03*
X003550Y003500D03*
X003550Y002500D03*
X003550Y001500D03*
X005550Y002500D03*
X010550Y002500D03*
X014550Y002500D03*
X019550Y002500D03*
X022550Y005000D03*
X022550Y006000D03*
X022550Y007000D03*
X022550Y008000D03*
X022550Y009000D03*
X022550Y010000D03*
X022550Y012000D03*
X022550Y013000D03*
X022550Y014000D03*
X022550Y015000D03*
X022550Y016000D03*
X022550Y017000D03*
X020050Y014000D03*
X019050Y014000D03*
X018050Y014000D03*
X017050Y014000D03*
X016050Y014000D03*
X015050Y014000D03*
X014050Y014000D03*
X013050Y014000D03*
X012050Y014000D03*
X011050Y014000D03*
X010050Y014000D03*
X009050Y014000D03*
X008050Y014000D03*
X007050Y014000D03*
X007550Y015750D03*
X007050Y016500D03*
X008050Y016500D03*
D11*
X014730Y009500D02*
X015370Y009500D01*
X016050Y007820D02*
X016050Y007180D01*
X014050Y007180D02*
X014050Y007820D01*
D12*
X015550Y009000D02*
X020050Y013500D01*
X020050Y014000D01*
X018050Y014000D02*
X017550Y013500D01*
X006550Y013500D01*
X006050Y014000D01*
X003550Y014000D01*
X003050Y013500D02*
X001550Y015000D01*
X003550Y015000D02*
X016050Y015000D01*
X017050Y014000D01*
X016050Y014000D02*
X015550Y014500D01*
X013050Y014500D01*
X013050Y014000D01*
X013050Y014500D02*
X009550Y014500D01*
X007550Y014500D01*
X007050Y014000D01*
X009550Y014500D02*
X010050Y014000D01*
X012050Y013000D02*
X004550Y013000D01*
X004050Y013500D01*
X003050Y013500D01*
X003550Y013000D02*
X002550Y013000D01*
X002550Y008000D01*
X001550Y007000D01*
X001550Y006000D02*
X003050Y007500D01*
X003050Y012000D01*
X003550Y012000D01*
X001550Y012000D02*
X001050Y012000D01*
X001050Y005500D01*
X002550Y005500D01*
X003550Y004500D01*
X001550Y003000D02*
X009050Y003000D01*
X010050Y002000D01*
X014050Y002000D01*
X014550Y002500D01*
X010550Y002500D02*
X005050Y008000D01*
X007550Y010500D01*
X009050Y009000D02*
X015550Y009000D01*
X015050Y009500D02*
X012050Y013000D01*
X007050Y016500D02*
X002050Y016500D01*
X001550Y017000D01*
X003550Y008500D02*
X004050Y008000D01*
X005050Y008000D01*
X005050Y007500D02*
X003550Y007500D01*
X003550Y002500D02*
X002050Y002500D01*
X001550Y002000D01*
D13*
X005050Y007500D03*
X009050Y009000D03*
X007550Y010500D03*
M02*
