%
M48
M72
T01C0.0200
T02C0.0320
T03C0.0354
T04C0.0400
%
T01
X5050Y7500
X9050Y9000
X7550Y10500
T02
X7550Y15750
X7050Y16500
X8050Y16500
T03
X5550Y2500
X10550Y2500
X14550Y2500
X19550Y2500
T04
X1550Y2000
X1550Y3000
X1550Y4000
X1550Y5000
X1550Y6000
X1550Y7000
X1550Y8000
X1550Y9000
X1550Y10000
X1550Y11000
X1550Y12000
X1550Y13000
X1550Y14000
X1550Y15000
X1550Y16000
X1550Y17000
X3550Y17000
X3550Y16000
X3550Y15000
X3550Y14000
X3550Y13000
X3550Y12000
X3550Y11000
X3550Y10000
X3550Y8500
X3550Y7500
X3550Y6500
X3550Y5500
X3550Y4500
X3550Y3500
X3550Y2500
X3550Y1500
X14050Y7500
X16050Y7500
X15050Y9500
X15050Y14000
X14050Y14000
X13050Y14000
X12050Y14000
X11050Y14000
X10050Y14000
X9050Y14000
X8050Y14000
X7050Y14000
X16050Y14000
X17050Y14000
X18050Y14000
X19050Y14000
X20050Y14000
X22550Y14000
X22550Y15000
X22550Y16000
X22550Y17000
X22550Y13000
X22550Y12000
X22550Y10000
X22550Y9000
X22550Y8000
X22550Y7000
X22550Y6000
X22550Y5000
M30
