G75*
%MOIN*%
%OFA0B0*%
%FSLAX24Y24*%
%IPPOS*%
%LPD*%
%AMOC8*
5,1,8,0,0,1.08239X$1,22.5*
%
%ADD10C,0.0820*%
%ADD11C,0.0720*%
D10*
X001550Y002000D03*
X001550Y003000D03*
X001550Y004000D03*
X001550Y005000D03*
X001550Y006000D03*
X001550Y007000D03*
X001550Y008000D03*
X001550Y009000D03*
X001550Y010000D03*
X001550Y011000D03*
X001550Y012000D03*
X001550Y013000D03*
X001550Y014000D03*
X001550Y015000D03*
X001550Y016000D03*
X001550Y017000D03*
X003550Y017000D03*
X003550Y016000D03*
X003550Y015000D03*
X003550Y014000D03*
X003550Y013000D03*
X003550Y012000D03*
X003550Y011000D03*
X003550Y010000D03*
X003550Y008500D03*
X003550Y007500D03*
X003550Y006500D03*
X003550Y005500D03*
X003550Y004500D03*
X003550Y003500D03*
X003550Y002500D03*
X003550Y001500D03*
X005550Y002500D03*
X010550Y002500D03*
X014550Y002500D03*
X019550Y002500D03*
X022550Y005000D03*
X022550Y006000D03*
X022550Y007000D03*
X022550Y008000D03*
X022550Y009000D03*
X022550Y010000D03*
X022550Y012000D03*
X022550Y013000D03*
X022550Y014000D03*
X022550Y015000D03*
X022550Y016000D03*
X022550Y017000D03*
X020050Y014000D03*
X019050Y014000D03*
X018050Y014000D03*
X017050Y014000D03*
X016050Y014000D03*
X015050Y014000D03*
X014050Y014000D03*
X013050Y014000D03*
X012050Y014000D03*
X011050Y014000D03*
X010050Y014000D03*
X009050Y014000D03*
X008050Y014000D03*
X007050Y014000D03*
X007550Y015750D03*
X007050Y016500D03*
X008050Y016500D03*
D11*
X014730Y009500D02*
X015370Y009500D01*
X016050Y007820D02*
X016050Y007180D01*
X014050Y007180D02*
X014050Y007820D01*
M02*
